<mxfile host="drawio-plugin" modified="2023-04-12T03:09:50.738Z" agent="5.0 (Windows NT 6.2; Win64; x64) AppleWebKit/537.36 (KHTML, like Gecko) Chrome/104.0.5112.102 Safari/537.36" version="20.5.3" etag="0Bdw4IUqH82JAYsnQoSY" type="embed"><diagram id="WcQt_OSrL9nvTHKJYHXg" name="Page-1"><mxGraphModel dx="725" dy="519" grid="0" gridSize="10" guides="1" tooltips="1" connect="1" arrows="1" fold="1" page="1" pageScale="1" pageWidth="850" pageHeight="1100" background="#ffffff" math="0" shadow="0"><root><mxCell id="0"/><mxCell id="1" parent="0"/><mxCell id="4" style="edgeStyle=orthogonalEdgeStyle;rounded=0;orthogonalLoop=1;jettySize=auto;html=1;exitX=0.5;exitY=0.5;exitDx=0;exitDy=0;exitPerimeter=0;" edge="1" parent="1" source="2"><mxGeometry relative="1" as="geometry"><mxPoint x="345" y="170" as="targetPoint"/></mxGeometry></mxCell><mxCell id="2" value="GUEST" style="shape=umlActor;verticalLabelPosition=bottom;verticalAlign=top;html=1;outlineConnect=0;fillColor=#f5f5f5;fontColor=#333333;strokeColor=#666666;" vertex="1" parent="1"><mxGeometry x="320" y="160" width="40" height="80" as="geometry"/></mxCell><mxCell id="5" value="Login" style="ellipse;whiteSpace=wrap;html=1;fillColor=#f5f5f5;fontColor=#333333;strokeColor=#666666;" vertex="1" parent="1"><mxGeometry x="40" y="320" width="120" height="80" as="geometry"/></mxCell><mxCell id="7" value="Show Siinger, Band, Song, Category, Playlist" style="ellipse;whiteSpace=wrap;html=1;fillColor=#f5f5f5;fontColor=#333333;strokeColor=#666666;" vertex="1" parent="1"><mxGeometry x="280" width="120" height="80" as="geometry"/></mxCell><mxCell id="8" value="Register" style="ellipse;whiteSpace=wrap;html=1;fillColor=#f5f5f5;fontColor=#333333;strokeColor=#666666;" vertex="1" parent="1"><mxGeometry x="40" width="120" height="80" as="geometry"/></mxCell><mxCell id="9" value="Show Top Like , View Song" style="ellipse;whiteSpace=wrap;html=1;fillColor=#f5f5f5;fontColor=#333333;strokeColor=#666666;" vertex="1" parent="1"><mxGeometry x="520" y="320" width="120" height="80" as="geometry"/></mxCell><mxCell id="10" value="Detail Song" style="ellipse;whiteSpace=wrap;html=1;fillColor=#f5f5f5;fontColor=#333333;strokeColor=#666666;" vertex="1" parent="1"><mxGeometry x="520" width="120" height="80" as="geometry"/></mxCell><mxCell id="12" value="" style="endArrow=classic;html=1;dashed=1;strokeColor=#000000;curved=1;exitX=0.5;exitY=0;exitDx=0;exitDy=0;entryX=0.5;entryY=1;entryDx=0;entryDy=0;" edge="1" parent="1" source="5" target="8"><mxGeometry width="50" height="50" relative="1" as="geometry"><mxPoint x="110" y="295" as="sourcePoint"/><mxPoint x="190" y="170" as="targetPoint"/></mxGeometry></mxCell><mxCell id="13" value="" style="endArrow=classic;html=1;dashed=1;strokeColor=#000000;curved=1;exitX=0.5;exitY=0;exitDx=0;exitDy=0;entryX=0.5;entryY=1;entryDx=0;entryDy=0;" edge="1" parent="1" source="9" target="10"><mxGeometry width="50" height="50" relative="1" as="geometry"><mxPoint x="120" y="305" as="sourcePoint"/><mxPoint x="120" y="380" as="targetPoint"/></mxGeometry></mxCell><mxCell id="14" value="" style="endArrow=classic;html=1;strokeColor=#000000;curved=1;exitX=1;exitY=0.5;exitDx=0;exitDy=0;entryX=0;entryY=0.5;entryDx=0;entryDy=0;dashed=1;" edge="1" parent="1" source="7" target="10"><mxGeometry width="50" height="50" relative="1" as="geometry"><mxPoint x="130" y="315" as="sourcePoint"/><mxPoint x="470" y="90" as="targetPoint"/></mxGeometry></mxCell><mxCell id="15" value="" style="endArrow=classic;html=1;rounded=0;strokeColor=#000000;exitX=0.5;exitY=0.5;exitDx=0;exitDy=0;exitPerimeter=0;" edge="1" parent="1" source="2" target="9"><mxGeometry width="50" height="50" relative="1" as="geometry"><mxPoint x="350" y="240" as="sourcePoint"/><mxPoint x="400" y="190" as="targetPoint"/></mxGeometry></mxCell><mxCell id="16" value="" style="endArrow=classic;html=1;rounded=0;strokeColor=#000000;entryX=0.042;entryY=0.8;entryDx=0;entryDy=0;entryPerimeter=0;" edge="1" parent="1" target="10"><mxGeometry width="50" height="50" relative="1" as="geometry"><mxPoint x="340" y="200" as="sourcePoint"/><mxPoint x="400" y="190" as="targetPoint"/></mxGeometry></mxCell><mxCell id="17" value="" style="endArrow=classic;html=1;rounded=0;strokeColor=#000000;entryX=0.5;entryY=1;entryDx=0;entryDy=0;" edge="1" parent="1" target="7"><mxGeometry width="50" height="50" relative="1" as="geometry"><mxPoint x="340" y="200" as="sourcePoint"/><mxPoint x="400" y="140" as="targetPoint"/></mxGeometry></mxCell><mxCell id="18" value="" style="endArrow=classic;html=1;rounded=0;strokeColor=#000000;exitX=0.5;exitY=0.5;exitDx=0;exitDy=0;exitPerimeter=0;entryX=0.908;entryY=0.888;entryDx=0;entryDy=0;entryPerimeter=0;" edge="1" parent="1" source="2" target="8"><mxGeometry width="50" height="50" relative="1" as="geometry"><mxPoint x="350" y="190" as="sourcePoint"/><mxPoint x="400" y="140" as="targetPoint"/></mxGeometry></mxCell><mxCell id="19" value="" style="endArrow=classic;html=1;rounded=0;strokeColor=#000000;exitX=0.5;exitY=0.5;exitDx=0;exitDy=0;exitPerimeter=0;" edge="1" parent="1" source="2" target="5"><mxGeometry width="50" height="50" relative="1" as="geometry"><mxPoint x="350" y="240" as="sourcePoint"/><mxPoint x="400" y="190" as="targetPoint"/></mxGeometry></mxCell><mxCell id="21" value="Mô hình Usecase Khách vãng lai" style="text;html=1;align=center;verticalAlign=middle;resizable=0;points=[];autosize=1;strokeColor=none;fillColor=none;fontColor=#000000;" vertex="1" parent="1"><mxGeometry x="240" y="375" width="200" height="30" as="geometry"/></mxCell></root></mxGraphModel></diagram></mxfile>